<svg xmlns="http://www.w3.org/2000/svg" width="79" height="78.847" viewBox="0 0 79 78.847">
  <g id="Group_163416" data-name="Group 163416" transform="translate(20205.857 363)">
    <path id="Path_85355" data-name="Path 85355" d="M140.5,55.5a1.491,1.491,0,0,0-.524-.093h-18.85A7.59,7.59,0,0,0,113.534,63v52.55a7.351,7.351,0,0,0,2.08,5.135,7.062,7.062,0,0,0,5.059,2.144h64.722a7.064,7.064,0,0,0,5.059-2.144,7.355,7.355,0,0,0,2.081-5.135V74.944a7.344,7.344,0,0,0-2.081-5.133,7.1,7.1,0,0,0-3.771-2.024V62.543a7.139,7.139,0,0,0-7.139-7.139h-8.383l-5.106-10.592a1.46,1.46,0,0,0-1.951-.685L140.5,55.5ZM116.459,69V115.55a4.429,4.429,0,0,0,1.246,3.09,4.148,4.148,0,0,0,2.967,1.264h64.722a4.144,4.144,0,0,0,2.967-1.264,4.427,4.427,0,0,0,1.246-3.09v-15.5H173.514a7.314,7.314,0,0,1-7.315-7.315h0a7.314,7.314,0,0,1,7.315-7.315h16.093V74.944a4.411,4.411,0,0,0-1.246-3.087,4.148,4.148,0,0,0-2.967-1.264c-.068,0-.158,0-.258.006l-.041,0H121.129A7.6,7.6,0,0,1,116.459,69Zm73.147,19.352H173.513a4.391,4.391,0,0,0-4.389,4.389h0a4.391,4.391,0,0,0,4.389,4.389h16.093Zm-13.167,1.464a2.926,2.926,0,1,1-2.926,2.925A2.926,2.926,0,0,1,176.439,89.812Zm7.315-25.344h-8.231l1.545,3.21h6.686Zm-61.784,3.21h6.089l28.652-13.8a1.462,1.462,0,0,1,2.089,1.174,4.051,4.051,0,0,0,5.782,3.236,2.8,2.8,0,0,0,.26-.137,1.463,1.463,0,0,1,2.049.635l4.286,8.9h2.643c-2.487-5.165-9.767-20.276-9.767-20.276Zm12.83,0h33.129l-3.069-6.37a6.977,6.977,0,0,1-8.312-3.643c-.062-.126-.12-.254-.173-.383Zm-.175-9.346h-13.5a4.666,4.666,0,0,0-4.67,4.67v.007a4.669,4.669,0,0,0,1.367,3.3c.027.026.056.053.082.079l16.718-8.055Zm37.939,0,1.548,3.21h9.521a4.215,4.215,0,0,0-4.093-3.21Z" transform="translate(-20319.391 -406.982)" fill="#0a2b58" fill-rule="evenodd"/>
  </g>
</svg>
