<svg xmlns="http://www.w3.org/2000/svg" width="77.984" height="78.107" viewBox="0 0 77.984 78.107">
  <path id="noun-company-3848961" d="M213.133,140.531h-6.157V85.121a2.01,2.01,0,0,0-1.4-2.052l-19.126-6.28V68.58a2.053,2.053,0,0,0-2.052-2.052h-36.94a2.052,2.052,0,0,0-2.052,2.052v71.95h-6.157a2.052,2.052,0,0,0,0,4.1h73.88a2.052,2.052,0,0,0,0-4.1ZM202.872,86.6v53.933H186.454V81.1ZM163.88,140.531v-8.208h4.1v8.209Zm6.156-12.313h-8.208a2.053,2.053,0,0,0-2.053,2.052v10.261H149.514V70.755H182.35v69.775H172.089V130.147a2.053,2.053,0,0,0-2.053-1.929ZM163.8,117.957a2.052,2.052,0,0,1-1.97,2.052h-4.1a2.052,2.052,0,0,1,0-4.1h4.1A2.052,2.052,0,0,1,163.8,117.957Zm10.59,2.052h-4.351a2.052,2.052,0,0,1,0-4.1h4.1a2.052,2.052,0,0,1,0,4.1ZM163.8,105.644a2.052,2.052,0,0,1-1.97,2.052h-4.1a2.052,2.052,0,0,1,0-4.1h4.1A2.052,2.052,0,0,1,163.8,105.644Zm4.1,0h0a2.051,2.051,0,0,1,2.134-2.052h4.1a2.052,2.052,0,0,1,0,4.1h-4.1a2.052,2.052,0,0,1-1.97-2.052ZM163.8,93.33a2.052,2.052,0,0,1-1.97,2.052h-4.1a2.052,2.052,0,0,1,0-4.1h4.1A2.052,2.052,0,0,1,163.8,93.33Zm4.1,0h0a2.051,2.051,0,0,1,2.134-2.052h4.1a2.052,2.052,0,0,1,0,4.1h-4.1a2.052,2.052,0,0,1-1.97-2.052Zm-4.1-12.313a2.053,2.053,0,0,1-1.97,2.052h-4.1a2.052,2.052,0,0,1,0-4.1h4.1A2.053,2.053,0,0,1,163.8,81.017Zm4.1,0h0a2.052,2.052,0,0,1,2.134-2.053h4.1a2.052,2.052,0,0,1,0,4.1h-4.1a2.053,2.053,0,0,1-1.97-2.052Zm30.7,49.253h0a2.053,2.053,0,0,1-2.052,2.053h-4.1a2.052,2.052,0,0,1,0-4.1h4.1a2.052,2.052,0,0,1,2.216,1.929Zm-8.209-12.313h0a2.094,2.094,0,0,1,2.052-2.052h4.1a2.094,2.094,0,0,1,2.052,2.052,2.051,2.051,0,0,1-2.052,2.052h-4.1a2.053,2.053,0,0,1-1.888-2.134Zm0-12.313h0a2.052,2.052,0,0,1,2.052-2.052h4.1a2.052,2.052,0,0,1,0,4.1h-4.1a2.053,2.053,0,0,1-1.888-2.052Zm0-12.313h0a2.052,2.052,0,0,1,2.052-2.052h4.1A2.051,2.051,0,0,1,198.6,93.33a2.094,2.094,0,0,1-2.052,2.052h-4.1a2.1,2.1,0,0,1-1.888-1.97Z" transform="translate(-137.201 -66.528)" fill="#0a2b58"/>
</svg>
