<svg xmlns="http://www.w3.org/2000/svg" width="66.539" height="63.082" viewBox="0 0 66.539 63.082">
  <g id="Group_163286" data-name="Group 163286" transform="translate(-674.238 -221.595)">
    <g id="Path_85130" data-name="Path 85130" transform="translate(675.601 221.595)" fill="rgba(255,255,255,0.2)" opacity="0.163">
      <path d="M 31.5409107208252 61.58182144165039 C 27.48475074768066 61.58182144165039 23.55072021484375 60.78775024414062 19.84809112548828 59.22167205810547 C 16.27102088928223 57.70870208740234 13.05817031860352 55.54243087768555 10.29878044128418 52.78303909301758 C 7.539390563964844 50.02365112304688 5.373120784759521 46.8108024597168 3.860150814056396 43.23373031616211 C 2.294070720672607 39.53110122680664 1.500000715255737 35.59707260131836 1.500000715255737 31.5409107208252 C 1.500000715255737 27.48475074768066 2.294070720672607 23.55072021484375 3.860150814056396 19.84809112548828 C 5.373120784759521 16.27102088928223 7.539390563964844 13.05817031860352 10.29878044128418 10.29878044128418 C 13.05817031860352 7.539390563964844 16.27102088928223 5.373120784759521 19.84809112548828 3.860150814056396 C 23.55072021484375 2.294070720672607 27.48475074768066 1.500000715255737 31.5409107208252 1.500000715255737 C 35.59707260131836 1.500000715255737 39.53110122680664 2.294070720672607 43.23373031616211 3.860150814056396 C 46.8108024597168 5.373120784759521 50.02365112304688 7.539390563964844 52.78303909301758 10.29878044128418 C 55.54243087768555 13.05817031860352 57.70870208740234 16.27102088928223 59.22167205810547 19.84809112548828 C 60.78775024414062 23.55072021484375 61.58182144165039 27.48475074768066 61.58182144165039 31.5409107208252 C 61.58182144165039 35.59707260131836 60.78775024414062 39.53110122680664 59.22167205810547 43.23373031616211 C 57.70870208740234 46.8108024597168 55.54243087768555 50.02366256713867 52.78303909301758 52.78303909301758 C 50.02366256713867 55.54243087768555 46.8108024597168 57.70870208740234 43.23373031616211 59.22167205810547 C 39.53110122680664 60.78775024414062 35.59707260131836 61.58182144165039 31.5409107208252 61.58182144165039 Z" stroke="none"/>
      <path d="M 31.5409107208252 3 C 27.68658828735352 3 23.94915390014648 3.754199981689453 20.43242263793945 5.241653442382812 C 17.03414535522461 6.679000854492188 13.9815559387207 8.737319946289062 11.35943222045898 11.35943222045898 C 8.737319946289062 13.9815559387207 6.679000854492188 17.03414535522461 5.241653442382812 20.43242263793945 C 3.754199981689453 23.94915390014648 3 27.68658828735352 3 31.5409107208252 C 3 35.39523315429688 3.754199981689453 39.13266754150391 5.241653442382812 42.64939880371094 C 6.679000854492188 46.04767608642578 8.737319946289062 49.10026550292969 11.35943222045898 51.72238922119141 C 13.9815559387207 54.34449768066406 17.03414535522461 56.4028205871582 20.43242263793945 57.84016418457031 C 23.94915390014648 59.32762145996094 27.68658828735352 60.08182144165039 31.5409107208252 60.08182144165039 C 35.39523315429688 60.08182144165039 39.13266754150391 59.32762145996094 42.64939880371094 57.84016418457031 C 46.04767608642578 56.4028205871582 49.10026550292969 54.34449768066406 51.72238922119141 51.72238922119141 C 54.34449768066406 49.10026550292969 56.4028205871582 46.04767608642578 57.84016418457031 42.64939880371094 C 59.32762145996094 39.13266754150391 60.08182144165039 35.39523315429688 60.08182144165039 31.5409107208252 C 60.08182144165039 27.68658828735352 59.32762145996094 23.94915390014648 57.84016418457031 20.43242263793945 C 56.4028205871582 17.03414535522461 54.34449768066406 13.9815559387207 51.72238922119141 11.35943222045898 C 49.10026550292969 8.737319946289062 46.04767608642578 6.679000854492188 42.64939880371094 5.241653442382812 C 39.13266754150391 3.754199981689453 35.39523315429688 3 31.5409107208252 3 M 31.5409107208252 0 C 48.96047973632812 0 63.08182144165039 14.12134552001953 63.08182144165039 31.5409107208252 C 63.08182144165039 48.96047973632812 48.96047973632812 63.08182144165039 31.5409107208252 63.08182144165039 C 14.12134552001953 63.08182144165039 0 48.96047973632812 0 31.5409107208252 C 0 14.12134552001953 14.12134552001953 0 31.5409107208252 0 Z" stroke="none" fill="#b1b1b1"/>
    </g>
    <text id="_90_" data-name="90%" transform="translate(689.238 257.595)" fill="#0b2148" font-size="18" font-family="Helvetica"><tspan x="0" y="0">90%</tspan></text>
    <path id="Icon_awesome-circle-notch" data-name="Icon awesome-circle-notch" d="M48.47,58.475c-.665-1.386,1.966-4.107,4.434-5.854,3.2-3.045,10.234-11.438,9.278-21.669C61.225,14.678,47.869,4.918,33.747,4.717S5.415,17.919,5.415,30.951c0,5.352,2.4,13.818,5.805,18.224.8.969,4.607,4.606,2.8,6.208-1.359,1.535-4.469-.566-6.325-2.763A31.345,31.345,0,0,1,.407,32.369C.5,14.808,15.361.725,33.747.762,52.088.8,67.095,13.329,66.944,32.54A31.386,31.386,0,0,1,52.9,58.475C49.714,60.652,48.67,58.587,48.47,58.475Z" transform="translate(673.832 220.833)" fill="#468ebc"/>
  </g>
</svg>
