<svg xmlns="http://www.w3.org/2000/svg" width="23.123" height="23.119" viewBox="0 0 23.123 23.119">
  <g id="Group_163413" data-name="Group 163413" transform="translate(-0.001)">
    <path id="Path_85350" data-name="Path 85350" d="M155.039,75.711h-7.582a1.549,1.549,0,0,0-1.235.706,2.932,2.932,0,0,0-.512,1.7V88.576a2.934,2.934,0,0,0,.512,1.7,1.55,1.55,0,0,0,1.235.705h7.582a1.55,1.55,0,0,0,1.236-.705,2.935,2.935,0,0,0,.512-1.7V78.12a2.934,2.934,0,0,0-.512-1.7A1.55,1.55,0,0,0,155.039,75.711Zm.35,12.865a.586.586,0,0,1-.1.341.31.31,0,0,1-.247.141h-7.582c-.193,0-.349-.216-.349-.482V78.12c0-.266.156-.482.349-.482h7.582a.31.31,0,0,1,.247.141.585.585,0,0,1,.1.34Z" transform="translate(-145.709 -75.711)" fill="#0a2b58"/>
    <path id="Path_85351" data-name="Path 85351" d="M386.1,75.711h-7.582a2.474,2.474,0,0,0-1.236.3.9.9,0,0,0-.512.733v4.5a.9.9,0,0,0,.512.733,2.476,2.476,0,0,0,1.236.3H386.1a2.475,2.475,0,0,0,1.235-.3.9.9,0,0,0,.512-.733v-4.5a.9.9,0,0,0-.512-.733A2.473,2.473,0,0,0,386.1,75.711Zm.35,5.534h0a.179.179,0,0,1-.1.147.494.494,0,0,1-.247.061h-7.582c-.193,0-.35-.093-.35-.207v-4.5c0-.114.156-.207.35-.207H386.1a.494.494,0,0,1,.247.061.179.179,0,0,1,.1.146Z" transform="translate(-364.723 -75.711)" fill="#0a2b58"/>
    <path id="Path_85352" data-name="Path 85352" d="M155.039,306.77h-7.582a2.474,2.474,0,0,0-1.235.3.9.9,0,0,0-.512.733v4.5a.9.9,0,0,0,.512.733,2.474,2.474,0,0,0,1.235.3h7.582a2.475,2.475,0,0,0,1.236-.3.9.9,0,0,0,.512-.733v-4.5a.9.9,0,0,0-.512-.733A2.475,2.475,0,0,0,155.039,306.77Zm.35,5.534h0a.18.18,0,0,1-.1.147.5.5,0,0,1-.247.061h-7.582c-.193,0-.349-.093-.349-.207v-4.5c0-.115.156-.207.349-.207h7.582a.5.5,0,0,1,.247.061.18.18,0,0,1,.1.147Z" transform="translate(-145.709 -290.222)" fill="#0a2b58"/>
    <path id="Path_85353" data-name="Path 85353" d="M386.1,306.77h-7.582a1.55,1.55,0,0,0-1.236.706,2.935,2.935,0,0,0-.512,1.7v10.451a2.935,2.935,0,0,0,.512,1.7,1.55,1.55,0,0,0,1.236.706H386.1a1.55,1.55,0,0,0,1.235-.706,2.934,2.934,0,0,0,.512-1.7V309.179a2.934,2.934,0,0,0-.512-1.7A1.55,1.55,0,0,0,386.1,306.77Zm.35,12.861h0a.587.587,0,0,1-.1.341.309.309,0,0,1-.247.141h-7.582c-.193,0-.35-.216-.35-.482V309.179c0-.266.156-.482.35-.482H386.1a.309.309,0,0,1,.247.141.587.587,0,0,1,.1.341Z" transform="translate(-364.723 -298.921)" fill="#0a2b58"/>
  </g>
</svg>
