<svg xmlns="http://www.w3.org/2000/svg" width="76.811" height="79.44" viewBox="0 0 76.811 79.44">
  <g id="Group_163386" data-name="Group 163386" transform="translate(21902.635 -1498.144)">
    <g id="Group_163385" data-name="Group 163385" transform="translate(-21902.635 1498.144)">
      <g id="Group_163384" data-name="Group 163384" transform="translate(0 0)">
        <path id="Path_85212" data-name="Path 85212" d="M177.957,26.453h-56.48a3.26,3.26,0,0,0-3.313,3.2V82.525h-3.111a1.686,1.686,0,0,0-1.715,1.655v6.007a8.5,8.5,0,0,0,8.63,8.331h5.782a8.981,8.981,0,0,0,8.977,7.374l46.76-.028c3.038,0,6.661-1.477,6.661-8.509V34.937a3.31,3.31,0,0,0-3.363-3.246H181.27V29.651a3.26,3.26,0,0,0-3.313-3.2Zm-56.48,3.31,56.363-.113V90.183c0,6.416-9.483,6.466-9.483,0V84.179a1.686,1.686,0,0,0-1.715-1.655H121.589Zm-4.709,60.423V85.834h48.162v4.352a8.076,8.076,0,0,0,1.748,5.021H121.969a5.128,5.128,0,0,1-5.2-5.02Zm69.951-55.251V97.355c0,4.8-1.668,5.2-3.232,5.2l-46.76.028a5.6,5.6,0,0,1-5.474-4.064h42.305c3.08,0,7.71-3.292,7.71-8.335V35Z" transform="translate(-113.338 -26.453)" fill="#0a2b58"/>
        <path id="Path_85213" data-name="Path 85213" d="M203.013,90.007h41.771a1.759,1.759,0,1,0,0-3.519H203.013a1.759,1.759,0,0,0,0,3.519Z" transform="translate(-187.49 -76.491)" fill="#0a2b58"/>
        <path id="Path_85214" data-name="Path 85214" d="M203.013,149.587h41.771a1.759,1.759,0,1,0,0-3.519H203.013a1.759,1.759,0,0,0,0,3.519Z" transform="translate(-187.49 -127.381)" fill="#0a2b58"/>
        <path id="Path_85215" data-name="Path 85215" d="M203.013,209.167h41.771a1.759,1.759,0,1,0,0-3.519H203.013a1.759,1.759,0,1,0,0,3.518Z" transform="translate(-187.49 -177.653)" fill="#0a2b58"/>
        <path id="Path_85216" data-name="Path 85216" d="M203.013,268.747h41.771a1.759,1.759,0,1,0,0-3.519H203.013a1.759,1.759,0,1,0,0,3.518Z" transform="translate(-187.49 -227.925)" fill="#0a2b58"/>
        <path id="Path_85217" data-name="Path 85217" d="M246.548,326.573a1.759,1.759,0,0,0-1.759-1.759H203.017a1.759,1.759,0,0,0,0,3.519h41.771A1.759,1.759,0,0,0,246.548,326.573Z" transform="translate(-187.492 -278.202)" fill="#0a2b58"/>
      </g>
    </g>
  </g>
</svg>
