<svg xmlns="http://www.w3.org/2000/svg" width="64.84" height="78.61" viewBox="0 0 64.84 78.61">
  <g id="noun-page-4481210" transform="translate(-183.75 -43.753)">
    <path id="Path_85196" data-name="Path 85196" d="M248.5,65.219a1.386,1.386,0,0,0-.414-.661L224.2,44.181a1.8,1.8,0,0,0-.776-.354,1.756,1.756,0,0,0-.211-.036,1.793,1.793,0,0,0-.221-.038H188.868a5.607,5.607,0,0,0-3.618,1.28,4.077,4.077,0,0,0-1.5,3.087V118a4.078,4.078,0,0,0,1.5,3.087,5.607,5.607,0,0,0,3.618,1.28h54.6a5.607,5.607,0,0,0,3.618-1.28,4.078,4.078,0,0,0,1.5-3.087V65.589a1.175,1.175,0,0,0-.045-.189,1.059,1.059,0,0,0-.043-.181Zm-23.8-16.5,18.063,15.411H229.82a5.607,5.607,0,0,1-3.618-1.28,4.077,4.077,0,0,1-1.5-3.087Zm18.769,70.729h-54.6A1.6,1.6,0,0,1,187.162,118V48.12a1.6,1.6,0,0,1,1.706-1.456h32.42v13.1a6.791,6.791,0,0,0,2.5,5.144,9.338,9.338,0,0,0,6.03,2.134h15.357V118A1.6,1.6,0,0,1,243.47,119.452Z" transform="translate(0)" fill="#0a2b58"/>
    <path id="Path_85197" data-name="Path 85197" d="M286.769,236.25H255.322a1.923,1.923,0,0,0,0,3.781h31.447a1.923,1.923,0,0,0,0-3.781Z" transform="translate(-54.876 -160.839)" fill="#0a2b58"/>
    <path id="Path_85198" data-name="Path 85198" d="M286.769,306.25H255.322a1.923,1.923,0,0,0,0,3.781h31.447a1.923,1.923,0,0,0,0-3.781Z" transform="translate(-54.876 -219.327)" fill="#0a2b58"/>
    <path id="Path_85199" data-name="Path 85199" d="M282.108,376.25H255.641a1.891,1.891,0,1,0,0,3.781h26.467a1.891,1.891,0,1,0,0-3.781Z" transform="translate(-57.422 -277.815)" fill="#0a2b58"/>
    <path id="Path_85200" data-name="Path 85200" d="M255.641,170.031h11.343a1.891,1.891,0,1,0,0-3.781H255.641a1.891,1.891,0,1,0,0,3.781Z" transform="translate(-56.743 -102.351)" fill="#0a2b58"/>
  </g>
</svg>
