<svg xmlns="http://www.w3.org/2000/svg" width="25.314" height="24.803" viewBox="0 0 25.314 24.803">
  <path id="noun-home-677005" d="M148.484,68.331,136.557,58.183a.712.712,0,0,0-.922,0L123.669,68.375a.71.71,0,1,0,.92,1.082l.094-.081v12.73a.71.71,0,0,0,.71.71h21.32a.71.71,0,0,0,.71-.71V69.3l.139.119a.711.711,0,0,0,.92-1.083ZM138.9,81.351h-5.684v-8.29H138.9ZM146,81.4h-5.685V72.35a.71.71,0,0,0-.71-.71H132.5a.71.71,0,0,0-.71.71V81.4h-5.685V68.166l9.99-8.509L146,68.085Z" transform="translate(-123.42 -58.014)" fill="#0a2b58"/>
</svg>
