<svg xmlns="http://www.w3.org/2000/svg" width="78.313" height="76.838" viewBox="0 0 78.313 76.838">
  <g id="Group_163375" data-name="Group 163375" transform="translate(18847.311 2795)">
    <path id="Path_85187" data-name="Path 85187" d="M159.58,87.373H91.66a5.2,5.2,0,0,1-5.19-5.19V26.62a5.2,5.2,0,0,1,5.189-5.188h67.92a5.2,5.2,0,0,1,5.189,5.188V82.183a5.2,5.2,0,0,1-5.189,5.19ZM91.66,23.879a2.746,2.746,0,0,0-2.742,2.741V82.183a2.747,2.747,0,0,0,2.742,2.742h67.92a2.747,2.747,0,0,0,2.742-2.742V26.62a2.746,2.746,0,0,0-2.742-2.741Z" transform="translate(-18933.781 -2816.432)" fill="#0a2b58"/>
    <path id="Path_85188" data-name="Path 85188" d="M163.588,371.865H87.729a1.223,1.223,0,1,1,0-2.447h75.859a1.224,1.224,0,0,1,0,2.448Z" transform="translate(-18933.811 -3112.712)" fill="#0a2b58"/>
    <path id="Path_85189" data-name="Path 85189" d="M278.072,462.072H250.641a1.223,1.223,0,0,1-1.057-1.838l6.333-10.9a1.221,1.221,0,0,1,1.057-.609h14.765a1.221,1.221,0,0,1,1.057.609l6.333,10.9a1.223,1.223,0,0,1-1.058,1.838Zm-25.305-2.447h23.179l-4.911-8.455H257.678Z" transform="translate(-19072.516 -3180.234)" fill="#0a2b58"/>
    <path id="Path_85190" data-name="Path 85190" d="M257.581,524.548H221.489a1.223,1.223,0,1,1,0-2.447h36.092a1.223,1.223,0,1,1,0,2.447Z" transform="translate(-19047.695 -3242.71)" fill="#0a2b58"/>
    <path id="Path_85191" data-name="Path 85191" d="M342.484,411.59a1.305,1.305,0,1,1,1.3-1.3A1.366,1.366,0,0,1,342.484,411.59Z" transform="translate(-19150.645 -3146.397)" fill="#0a2b58"/>
    <path id="Path_85192" data-name="Path 85192" d="M391.135,165.312h-5.412a1.225,1.225,0,0,1-1.211-1.045c-.311-2.117-.509-8.018-.509-10.4s.2-8.3.509-10.422a1.223,1.223,0,0,1,1.211-1.047h5.412a1.223,1.223,0,0,1,1.212,1.056c.294,2.125.474,8,.474,10.494v.006c-.011,2.391-.187,8.194-.473,10.3a1.224,1.224,0,0,1-1.213,1.059Zm-4.318-2.447h3.214c.2-2.438.332-6.845.342-8.918,0-2.035-.129-6.591-.341-9.1h-3.216c-.221,2.473-.367,6.986-.367,9.022s.146,6.533.367,9Zm4.78-8.916h.012Z" transform="translate(-19187.105 -2919.425)" fill="#0a2b58"/>
    <path id="Path_85193" data-name="Path 85193" d="M264.955,165.316h-5.411a1.224,1.224,0,0,1-1.211-1.045c-.312-2.113-.51-8.017-.51-10.4s.2-8.3.51-10.423a1.224,1.224,0,0,1,1.211-1.045h5.411a1.223,1.223,0,0,1,1.212,1.056c.3,2.131.475,8,.475,10.494v.006c-.012,2.4-.19,8.206-.474,10.3a1.224,1.224,0,0,1-1.213,1.058Zm-4.318-2.447h3.213c.2-2.434.333-6.841.344-8.919,0-2.033-.13-6.588-.341-9.1h-3.216c-.221,2.47-.368,6.985-.368,9.022s.147,6.534.367,9Zm4.781-8.916h.012Z" transform="translate(-19079.676 -2919.429)" fill="#0a2b58"/>
    <path id="Path_85194" data-name="Path 85194" d="M260.448,288.947H227.742a2.232,2.232,0,0,1-2.23-2.23v-4.356a2.232,2.232,0,0,1,2.23-2.229h32.706a2.232,2.232,0,0,1,2.23,2.229v4.356A2.232,2.232,0,0,1,260.448,288.947ZM227.959,286.5h32.272v-3.921H227.959Z" transform="translate(-19052.162 -3036.693)" fill="#0a2b58"/>
    <path id="Path_85195" data-name="Path 85195" d="M255.689,78.247H221.24a2.32,2.32,0,0,1-2.211-1.651,2.5,2.5,0,0,1,.867-2.814,1.223,1.223,0,0,1,.172-.106l18.056-9.118a2.226,2.226,0,0,1,2.516.018l16.27,9.125a1.1,1.1,0,0,1,.125.081A2.5,2.5,0,0,1,257.9,76.6a2.32,2.32,0,0,1-2.211,1.651ZM221.332,75.8l34.283-.019-16.231-9.1-.017-.009c-.02.012-.041.024-.062.035l-17.961,9.069a.045.045,0,0,1-.012.028Z" transform="translate(-19046.531 -2852.826)" fill="#0a2b58"/>
  </g>
</svg>
