<svg xmlns="http://www.w3.org/2000/svg" width="63.082" height="63.082" viewBox="0 0 63.082 63.082">
  <g id="Group_163395" data-name="Group 163395" transform="translate(22098 -1139)">
    <g id="Path_85130" data-name="Path 85130" transform="translate(-22098 1139)" fill="rgba(255,255,255,0.2)">
      <path d="M 31.5409107208252 61.58182144165039 C 27.48475074768066 61.58182144165039 23.55072021484375 60.78775024414062 19.84809112548828 59.22167205810547 C 16.27102088928223 57.70870208740234 13.05817031860352 55.54243087768555 10.29878044128418 52.78303909301758 C 7.539390563964844 50.02365112304688 5.373120784759521 46.8108024597168 3.860150814056396 43.23373031616211 C 2.294070720672607 39.53110122680664 1.500000715255737 35.59707260131836 1.500000715255737 31.5409107208252 C 1.500000715255737 27.48475074768066 2.294070720672607 23.55072021484375 3.860150814056396 19.84809112548828 C 5.373120784759521 16.27102088928223 7.539390563964844 13.05817031860352 10.29878044128418 10.29878044128418 C 13.05817031860352 7.539390563964844 16.27102088928223 5.373120784759521 19.84809112548828 3.860150814056396 C 23.55072021484375 2.294070720672607 27.48475074768066 1.500000715255737 31.5409107208252 1.500000715255737 C 35.59707260131836 1.500000715255737 39.53110122680664 2.294070720672607 43.23373031616211 3.860150814056396 C 46.8108024597168 5.373120784759521 50.02365112304688 7.539390563964844 52.78303909301758 10.29878044128418 C 55.54243087768555 13.05817031860352 57.70870208740234 16.27102088928223 59.22167205810547 19.84809112548828 C 60.78775024414062 23.55072021484375 61.58182144165039 27.48475074768066 61.58182144165039 31.5409107208252 C 61.58182144165039 35.59707260131836 60.78775024414062 39.53110122680664 59.22167205810547 43.23373031616211 C 57.70870208740234 46.8108024597168 55.54243087768555 50.02366256713867 52.78303909301758 52.78303909301758 C 50.02366256713867 55.54243087768555 46.8108024597168 57.70870208740234 43.23373031616211 59.22167205810547 C 39.53110122680664 60.78775024414062 35.59707260131836 61.58182144165039 31.5409107208252 61.58182144165039 Z" stroke="none"/>
      <path d="M 31.5409107208252 3 C 27.68658828735352 3 23.94915390014648 3.754199981689453 20.43242263793945 5.241653442382812 C 17.03414535522461 6.679000854492188 13.9815559387207 8.737319946289062 11.35943222045898 11.35943222045898 C 8.737319946289062 13.9815559387207 6.679000854492188 17.03414535522461 5.241653442382812 20.43242263793945 C 3.754199981689453 23.94915390014648 3 27.68658828735352 3 31.5409107208252 C 3 35.39523315429688 3.754199981689453 39.13266754150391 5.241653442382812 42.64939880371094 C 6.679000854492188 46.04767608642578 8.737319946289062 49.10026550292969 11.35943222045898 51.72238922119141 C 13.9815559387207 54.34449768066406 17.03414535522461 56.4028205871582 20.43242263793945 57.84016418457031 C 23.94915390014648 59.32762145996094 27.68658828735352 60.08182144165039 31.5409107208252 60.08182144165039 C 35.39523315429688 60.08182144165039 39.13266754150391 59.32762145996094 42.64939880371094 57.84016418457031 C 46.04767608642578 56.4028205871582 49.10026550292969 54.34449768066406 51.72238922119141 51.72238922119141 C 54.34449768066406 49.10026550292969 56.4028205871582 46.04767608642578 57.84016418457031 42.64939880371094 C 59.32762145996094 39.13266754150391 60.08182144165039 35.39523315429688 60.08182144165039 31.5409107208252 C 60.08182144165039 27.68658828735352 59.32762145996094 23.94915390014648 57.84016418457031 20.43242263793945 C 56.4028205871582 17.03414535522461 54.34449768066406 13.9815559387207 51.72238922119141 11.35943222045898 C 49.10026550292969 8.737319946289062 46.04767608642578 6.679000854492188 42.64939880371094 5.241653442382812 C 39.13266754150391 3.754199981689453 35.39523315429688 3 31.5409107208252 3 M 31.5409107208252 0 C 48.96047973632812 0 63.08182144165039 14.12134552001953 63.08182144165039 31.5409107208252 C 63.08182144165039 48.96047973632812 48.96047973632812 63.08182144165039 31.5409107208252 63.08182144165039 C 14.12134552001953 63.08182144165039 0 48.96047973632812 0 31.5409107208252 C 0 14.12134552001953 14.12134552001953 0 31.5409107208252 0 Z" stroke="none" fill="#00b440"/>
    </g>
    <text id="_100_" data-name="100%" transform="translate(-22089 1177)" fill="#38d200" font-size="18" font-family="Helvetica"><tspan x="0" y="0">100%</tspan></text>
  </g>
</svg>
