<svg xmlns="http://www.w3.org/2000/svg" width="78.529" height="78.532" viewBox="0 0 78.529 78.532">
  <g id="Group_163379" data-name="Group 163379" transform="translate(20646.73 -509.153)">
    <path id="Path_85207" data-name="Path 85207" d="M116.576,111.522h34.515a1.881,1.881,0,0,0,0-3.757H118.35v-5.636c0-5.354,10.559-9.3,14.2-10.332,3.993-1.033,7.985-3.757,7.985-7.514V78.742a13.58,13.58,0,0,0,4.791.845h.976a13.577,13.577,0,0,0,4.791-.845v5.542a5.728,5.728,0,0,0,1.6,3.945,1.755,1.755,0,0,0,1.331.563,2.048,2.048,0,0,0,1.242-.47,1.984,1.984,0,0,0,.089-2.63,2.151,2.151,0,0,1-.71-1.409v-7.42a15.674,15.674,0,0,0,6.3-12.68V54.6c0-8.453-6.566-15.4-14.551-15.4h-.976c-8.074,0-14.64,6.951-14.64,15.4V64.09a15.531,15.531,0,0,0,6.211,12.586V84.19c0,1.409-2.4,3.193-5.235,3.945a41.543,41.543,0,0,0-8.163,3.193c-5.856,3.1-8.784,6.67-8.784,10.8v7.514a1.834,1.834,0,0,0,1.774,1.878Zm17.746-47.338V54.6c0-6.386,4.969-11.646,11-11.646h.976c6.122,0,11.091,5.26,11.091,11.646V64.09c0,6.481-4.969,11.741-11,11.741h-.976c-6.122,0-11.091-5.26-11.091-11.647Z" transform="translate(-20761.531 469.953)" fill="#0a2b58"/>
    <path id="Path_85208" data-name="Path 85208" d="M389.258,296.8a16.858,16.858,0,1,0,16.858,16.858A16.851,16.851,0,0,0,389.258,296.8Zm0,30.168a13.309,13.309,0,1,1,13.309-13.309A13.291,13.291,0,0,1,389.258,326.967Z" transform="translate(-20974.318 257.169)" fill="#0a2b58"/>
    <path id="Path_85209" data-name="Path 85209" d="M440.937,372.312l-6.921,6.921-2.662-2.75a1.758,1.758,0,0,0-2.573,2.4l3.9,4.082a1.716,1.716,0,0,0,2.484,0l8.251-8.251a1.715,1.715,0,0,0,0-2.484,1.8,1.8,0,0,0-2.484.088Z" transform="translate(-21021.383 194.079)" fill="#0a2b58"/>
  </g>
</svg>
