<svg xmlns="http://www.w3.org/2000/svg" width="64.65" height="87.23" viewBox="0 0 64.65 87.23">
  <g id="Group_163388" data-name="Group 163388" transform="translate(20690.531 -766)">
    <path id="Path_85218" data-name="Path 85218" d="M214.325,33.6c-4.738,0-8.62,3.571-8.62,7.93v1.982h-7.273a4.449,4.449,0,0,0-4.58,4.213v1.735h-9.7A2.234,2.234,0,0,0,182,51.445V118.85a2.156,2.156,0,0,0,2.155,1.982H244.5a2.156,2.156,0,0,0,2.155-1.982V51.445a2.156,2.156,0,0,0-2.155-1.982h-9.7V47.727a4.449,4.449,0,0,0-4.58-4.213h-7.273V41.532c0-4.359-3.882-7.93-8.62-7.93Zm0,3.965a4.094,4.094,0,0,1,4.31,3.965V45.5a2.156,2.156,0,0,0,2.155,1.982h9.428c.2,0,.269.066.269.248V55.16c0,.181-.072.248-.269.248H198.431c-.2,0-.269-.066-.269-.248V47.726c0-.181.072-.248.269-.248h9.428a2.156,2.156,0,0,0,2.155-1.982V41.531a4.094,4.094,0,0,1,4.31-3.965ZM186.31,53.427h7.542v1.735a4.449,4.449,0,0,0,4.58,4.213h31.786a4.449,4.449,0,0,0,4.58-4.213V53.427h7.542v63.44H186.31Zm6.465,15.86a2.181,2.181,0,0,0,2.155,1.982h38.79a1.992,1.992,0,1,0,0-3.965H194.93A2.138,2.138,0,0,0,192.775,69.287Zm0,11.895a2.181,2.181,0,0,0,2.155,1.982h38.79a1.992,1.992,0,1,0,0-3.965H194.93A2.138,2.138,0,0,0,192.775,81.182Zm39.16,9.789-9.192,12.669-3.536-3.9a2.072,2.072,0,0,0-1.65-.712,1.976,1.976,0,0,0-2.155,1.982,1.744,1.744,0,0,0,.505,1.27l5.387,5.948a2.232,2.232,0,0,0,1.65.712,2.321,2.321,0,0,0,1.784-.9L235.5,93.17a1.771,1.771,0,0,0,.375-1.065,2.011,2.011,0,0,0-2.159-2,2.263,2.263,0,0,0-1.784.867Zm-39.16,2.106a2.179,2.179,0,0,0,2.155,1.982h17.24a1.992,1.992,0,1,0,0-3.965H194.93A2.112,2.112,0,0,0,192.775,93.077Z" transform="translate(-20872.531 732.398)" fill="#0a2b58"/>
  </g>
</svg>
