<svg width="177" height="70" viewBox="0 0 177 70" fill="none" xmlns="http://www.w3.org/2000/svg">
<g clip-path="url(#clip0)">
<path d="M33.933 68.1981L4.93397 49.3188C4.93397 49.3188 1.29692 47.2282 0.464088 43.3326C-0.705174 37.8634 3.15027 33.1746 3.15027 33.1746L40.7869 57.6855C43.6903 59.5778 44.483 63.4488 42.6166 66.3686C40.6995 69.3681 36.7597 70.03 33.933 68.1981Z" fill="#38D200"/>
<path d="M6.46501 29.1286C6.46501 29.1286 2.02289 26.4465 2.02289 20.2425C2.02289 14.0598 6.46324 11.4108 6.46324 11.4108L22.3171 1.03495C23.7124 0.127955 25.4109 -0.187604 27.0389 0.157698C28.6669 0.503 30.091 1.48088 30.998 2.87621C31.905 4.27154 32.2206 5.97002 31.8753 7.59803C31.53 9.22599 30.5521 10.6501 29.1568 11.5571L15.7949 20.2579L38.5616 35.0852C38.5616 35.0852 42.6597 37.4333 43.4671 41.3967C44.5939 46.926 40.788 51.4815 40.788 51.4815L6.46501 29.1286Z" fill="#0473EA"/>
<path d="M36.3057 14.075C34.8172 14.075 33.7577 14.5472 32.7242 15.2171L24.9844 20.2577L32.7242 25.2984C33.7677 25.9707 34.8626 26.4411 36.3057 26.4411C37.1228 26.4491 37.9334 26.2951 38.6905 25.9879C39.4477 25.6808 40.1365 25.2266 40.7171 24.6516C41.2976 24.0767 41.7585 23.3924 42.073 22.6383C42.3876 21.8841 42.5495 21.0752 42.5495 20.2581C42.5495 19.4409 42.3876 18.632 42.073 17.8778C41.7585 17.1237 41.2976 16.4394 40.7171 15.8645C40.1365 15.2895 39.4477 14.8353 38.6905 14.5282C37.9334 14.221 37.1228 14.067 36.3057 14.075Z" fill="#38D200"/>
<path d="M6.38058 69.1988C7.86915 69.1988 8.92869 68.7266 9.96161 68.0565L17.7014 63.0154L9.96161 57.9753C8.91864 57.303 7.82377 56.8326 6.38058 56.8326C5.56355 56.8246 4.75301 56.9787 3.99585 57.2858C3.23868 57.5929 2.5499 58.0471 1.96931 58.622C1.38872 59.197 0.927846 59.8813 0.613317 60.6354C0.298787 61.3896 0.136841 62.1986 0.136841 63.0156C0.136841 63.8325 0.298787 64.6417 0.613317 65.3958C0.927846 66.15 1.38872 66.8346 1.96931 67.4092C2.5499 67.9845 3.23868 68.4383 3.99585 68.7456C4.75301 69.0528 5.56355 69.2064 6.38058 69.1988Z" fill="#0473EA"/>
<path d="M68.504 49.5727C70.1407 49.5727 71.6667 49.1289 72.8589 48.1024V50.4043C71.527 51.3198 69.946 51.7082 68.2815 51.7082C64.0904 51.7082 61.1802 48.7953 61.1802 44.6064C61.1802 40.4452 64.1758 37.533 68.3372 37.533C69.9738 37.533 71.4991 38.0052 72.7198 38.9201V41.4439C71.6382 40.2794 70.1407 39.6691 68.4756 39.6691C65.5627 39.6691 63.5101 41.6942 63.5101 44.6064C63.5101 47.5187 65.5911 49.5727 68.504 49.5727Z" fill="#525355"/>
<path d="M77.6025 51.459H75.3552V33.4479L77.6025 34.8368V40.1134C78.6291 38.5322 80.2657 37.5335 82.3461 37.5335C85.7862 37.5335 87.6169 40.0574 87.6169 43.4141V51.459H85.3425V43.8024C85.3425 41.1393 84.1774 39.7251 81.7911 39.7251C79.2669 39.7251 77.6006 41.8883 77.6006 44.607L77.6025 51.459Z" fill="#525355"/>
<path d="M101.57 49.127C100.434 50.736 98.6857 51.7069 96.5497 51.7069C92.5552 51.7069 89.6979 48.7386 89.6979 44.6884C89.6979 40.5567 92.5552 37.5317 96.5497 37.5317C98.6857 37.5317 100.434 38.5304 101.57 40.1671V37.7814H103.845V51.4573H101.57V49.127ZM92.0279 44.6607C92.0279 47.4903 93.9977 49.5708 96.7716 49.5708C99.5732 49.5708 101.57 47.4903 101.57 44.6607C101.57 41.7756 99.5732 39.6678 96.7716 39.6678C93.9977 39.6696 92.0279 41.7773 92.0279 44.6624V44.6607Z" fill="#525355"/>
<path d="M109.588 51.459H107.34V37.7832H109.588V40.6955C110.669 38.6704 112.417 37.5336 114.581 37.5336V40.1135C111.862 39.7251 109.588 41.556 109.588 44.9399V51.459Z" fill="#525355"/>
<path d="M137.605 45.4947H126.814C127.147 47.9636 129.089 49.6004 131.807 49.6004C133.555 49.6004 135.248 49.101 136.69 48.0746V50.2384C135.22 51.2371 133.555 51.7087 131.807 51.7087C127.508 51.7087 124.43 48.9346 124.43 44.7439C124.43 40.6382 127.037 37.5317 131.171 37.5317C135.11 37.5317 137.69 40.444 137.69 44.3555C137.691 44.7368 137.662 45.1176 137.605 45.4947ZM126.842 43.6649H135.303C135.081 41.3346 133.611 39.6153 131.197 39.6153C128.701 39.6141 127.202 41.3618 126.842 43.6637V43.6649Z" fill="#525355"/>
<path d="M142.405 51.459H140.157V37.7832H142.405V40.6955C143.486 38.6704 145.234 37.5336 147.397 37.5336V40.1135C144.68 39.7251 142.405 41.556 142.405 44.9399V51.459Z" fill="#525355"/>
<path d="M160.741 45.4947H149.951C150.283 47.9636 152.225 49.6004 154.943 49.6004C156.691 49.6004 158.383 49.101 159.826 48.0746V50.2384C158.356 51.2371 156.691 51.7087 154.943 51.7087C150.643 51.7087 147.566 48.9346 147.566 44.7439C147.566 40.6382 150.173 37.5317 154.306 37.5317C158.245 37.5317 160.825 40.444 160.825 44.3555C160.826 44.7368 160.798 45.1176 160.741 45.4947ZM149.978 43.6649H158.438C158.217 41.3346 156.746 39.6153 154.333 39.6153C151.837 39.6141 150.34 41.3618 149.978 43.6637V43.6649Z" fill="#525355"/>
<path d="M174.23 49.1105C173.121 50.7472 171.345 51.7459 169.209 51.7459C165.214 51.7459 162.357 48.7776 162.357 44.7274C162.357 40.5957 165.214 37.5701 169.209 37.5701C171.345 37.5701 173.121 38.5971 174.23 40.261V33.4514L176.505 34.8409V51.4584H174.23V49.1105ZM164.688 44.7002C164.688 47.5298 166.657 49.6104 169.431 49.6104C172.233 49.6104 174.23 47.5298 174.23 44.7002C174.23 41.8151 172.233 39.7068 169.431 39.7068C166.657 39.7062 164.688 41.8145 164.688 44.7002Z" fill="#525355"/>
<path d="M118.507 46.913C118.507 48.8272 119.672 49.5762 121.143 49.5762C122.285 49.5873 123.401 49.2378 124.333 48.5775V50.7691C123.389 51.4626 122.086 51.74 120.949 51.74C118.036 51.74 116.26 50.4362 116.26 46.7466V33.4449L118.507 34.8338V46.913Z" fill="#525355"/>
<path d="M122.139 37.6043C121.753 37.3539 121.284 37.267 120.833 37.363C120.383 37.4589 119.99 37.7297 119.739 38.1158C119.489 38.5019 119.402 38.9716 119.498 39.4218C119.594 39.8719 119.864 40.2655 120.251 40.516L120.299 40.5461C120.577 40.7248 120.902 40.8197 121.234 40.8197C121.565 40.8197 121.889 40.7248 122.169 40.5461L124.403 39.113L122.139 37.6043Z" fill="#525355"/>
<path d="M65.8687 29.8511C67.4768 29.8511 68.6425 29.1575 68.6425 27.9092C68.6425 27.1601 68.2544 26.5776 67.2259 26.1614L63.9798 24.8576C62.3153 24.1364 61.3998 23.1931 61.3998 21.4177C61.3998 19.0319 63.3142 17.5339 66.088 17.5339C67.6962 17.5339 69.1944 17.9778 70.2488 18.7823V21.1432C69.0009 20.0336 67.4743 19.3955 66.1171 19.3955C64.6739 19.3955 63.6473 20.0613 63.6473 21.171C63.6473 22.0032 64.0361 22.5026 65.1183 22.9187L68.3644 24.2225C70.1116 24.9715 70.917 26.0257 70.917 27.496C70.917 30.1037 68.8081 31.7126 65.8409 31.7126C64.0367 31.7126 62.4003 31.2133 61.208 30.3256V27.8814C62.6499 29.2407 64.2592 29.8511 65.8687 29.8511Z" fill="#525355"/>
<path d="M75.1896 26.8826C75.1896 28.7968 76.354 29.5458 77.825 29.5458C78.966 29.556 80.0811 29.2066 81.0123 28.5471V30.7387C80.0679 31.4322 78.7644 31.7096 77.6272 31.7096C74.7142 31.7096 72.9398 30.4058 72.9398 26.7162V14.7934L75.1865 13.4027L75.1896 26.8826Z" fill="#525355"/>
<path d="M93.5812 29.1298C92.4439 30.7388 90.6961 31.7097 88.5601 31.7097C84.5655 31.7097 81.7083 28.7414 81.7083 24.6912C81.7083 20.5595 84.5655 17.5339 88.5601 17.5339C90.6961 17.5339 92.4439 18.5326 93.5812 20.1693V17.7853H95.8562V31.46H93.5812V29.1298ZM84.0383 24.6634C84.0383 27.493 86.0081 29.5736 88.7819 29.5736C91.5842 29.5736 93.5812 27.493 93.5812 24.6634C93.5812 21.7783 91.5842 19.67 88.7819 19.67C86.0081 19.67 84.0383 21.7783 84.0383 24.6634Z" fill="#525355"/>
<path d="M101.598 31.46H99.3507V17.7853H101.598V20.1155C102.625 18.5343 104.261 17.5356 106.342 17.5356C109.782 17.5356 111.612 20.0601 111.612 23.4168V31.4618H109.338V23.8057C109.338 21.1426 108.173 19.7278 105.787 19.7278C103.262 19.7278 101.596 21.8916 101.596 24.6103L101.598 31.46Z" fill="#525355"/>
<path d="M125.566 29.0742C124.457 30.7109 122.681 31.7096 120.545 31.7096C116.551 31.7096 113.693 28.7413 113.693 24.6911C113.693 20.5594 116.551 17.5338 120.545 17.5338C122.681 17.5338 124.457 18.5602 125.566 20.2247V14.7916L127.841 13.4027V31.4599H125.566V29.0742ZM116.023 24.6633C116.023 27.4929 117.993 29.5736 120.767 29.5736C123.569 29.5736 125.566 27.4929 125.566 24.6633C125.566 21.7782 123.569 19.6699 120.767 19.6699C117.995 19.6699 116.023 21.7782 116.023 24.6633Z" fill="#525355"/>
<path d="M167.178 29.0742C166.069 30.7109 164.293 31.7096 162.157 31.7096C158.162 31.7096 155.305 28.7413 155.305 24.6911C155.305 20.5594 158.162 17.5338 162.157 17.5338C164.293 17.5338 166.069 18.5602 167.178 20.2247V14.7916L169.453 13.4027V31.4599H167.178V29.0742ZM157.636 24.6633C157.636 27.4929 159.605 29.5736 162.379 29.5736C165.181 29.5736 167.178 27.4929 167.178 24.6633C167.178 21.7782 165.181 19.6699 162.379 19.6699C159.607 19.6699 157.636 21.7782 157.636 24.6633Z" fill="#525355"/>
<path d="M142.156 29.1298C141.018 30.7388 139.271 31.7097 137.135 31.7097C133.14 31.7097 130.283 28.7414 130.283 24.6912C130.283 20.5595 133.14 17.5339 137.135 17.5339C139.271 17.5339 141.018 18.5326 142.156 20.1693V17.7853H144.431V31.46H142.156V29.1298ZM132.613 24.6634C132.613 27.493 134.583 29.5736 137.356 29.5736C140.158 29.5736 142.156 27.493 142.156 24.6634C142.156 21.7783 140.158 19.67 137.356 19.67C134.581 19.67 132.613 21.7783 132.613 24.6634Z" fill="#525355"/>
<path d="M150.173 31.46H147.925V17.7853H150.173V20.6981C151.254 18.673 153.002 17.5356 155.166 17.5356V20.1155C152.447 19.7272 150.173 21.5581 150.173 24.9425V31.46Z" fill="#525355"/>
<path d="M78.3567 20.6981C78.5482 20.8232 78.7625 20.9092 78.9875 20.9513C79.2119 20.9932 79.4433 20.9904 79.6665 20.9429C79.8902 20.8953 80.1026 20.804 80.291 20.6743C80.4794 20.5445 80.64 20.3787 80.7639 20.1866C80.8878 19.9945 80.9731 19.7797 81.0135 19.5547C81.0546 19.3296 81.0502 19.0988 81.0015 18.8753C80.9529 18.6519 80.8599 18.4403 80.7291 18.2527C80.5982 18.0652 80.432 17.9053 80.2392 17.7823L80.1911 17.7522C79.9117 17.5747 79.5868 17.4809 79.2556 17.4821C78.9237 17.4832 78.6 17.5792 78.3213 17.7587L76.0879 19.1971L78.3567 20.6981Z" fill="#525355"/>
</g>
<defs>
<clipPath id="clip0">
<rect width="177" height="69.5357" fill="white"/>
</clipPath>
</defs>
</svg>
